
<svg width="50" height="50" viewBox="0 0 50 50" fill="none" xmlns="http://www.w3.org/2000/svg">
<circle cx="25" cy="25" r="25" fill="#1C64F2"/>
<g clip-path="url(#clip0)">
<path d="M25.0001 23.75C28.102 23.75 32.5001 28.5453 32.5001 31.5723C32.5001 32.9356 31.4528 33.75 29.6977 33.75C27.7899 33.75 26.5301 32.7703 25.0001 32.7703C23.4567 32.7703 22.1934 33.75 20.3024 33.75C18.5473 33.75 17.5001 32.9356 17.5001 31.5723C17.5001 28.5453 21.8981 23.75 25.0001 23.75ZM30.7532 23.2575C31.1594 21.9039 32.411 21.0274 33.5485 21.2992C34.686 21.5711 35.2786 22.8887 34.8723 24.2422C34.4661 25.5957 33.2145 26.4723 32.077 26.2004C30.9395 25.9285 30.3469 24.611 30.7532 23.2575ZM27.4438 22.4457C26.2352 22.1278 25.6305 20.495 26.093 18.7989C26.5555 17.1028 27.9102 15.986 29.1188 16.3039C30.3274 16.6219 30.9321 18.2547 30.4696 19.9508C30.0071 21.6469 28.652 22.7641 27.4438 22.4457ZM16.452 21.2996C17.5895 21.0278 18.8407 21.9043 19.2473 23.2578C19.6536 24.6114 19.061 25.9289 17.9235 26.2008C16.786 26.4727 15.5348 25.5961 15.1282 24.2426C14.7219 22.8891 15.3145 21.5715 16.452 21.2996ZM22.5563 22.4457C21.3477 22.7637 19.993 21.6469 19.5305 19.9508C19.068 18.2547 19.6727 16.6223 20.8813 16.3039C22.0899 15.9856 23.4446 17.1028 23.9071 18.7989C24.3696 20.495 23.7649 22.1278 22.5563 22.4457Z" fill="white"/>
</g>
<defs>
<clipPath id="clip0">
<rect width="20" height="20" fill="white" transform="matrix(-1 0 0 1 35 15)"/>
</clipPath>
</defs>
</svg>
