<svg xmlns="http://www.w3.org/2000/svg" viewBox="0 0 703.24 545.06"><defs><clipPath id="clip-path" transform="translate(-51.39 -20.34)"><path class="cls-1" transform="rotate(-69.36 192.273 253.37)" d="M188.16 249.24h8.27v8.27h-8.27z"/></clipPath><clipPath id="clip-path-2" transform="translate(-51.39 -20.34)"><path class="cls-1" transform="rotate(-69.36 397.237 434.684)" d="M393.14 430.56h8.27v8.27h-8.27z"/></clipPath><style>.cls-1,.cls-11{fill:none}.cls-2{fill:#6893ef}.cls-3{fill:#f6c724}.cls-4{fill:#265cd2}.cls-5{fill:#a9c1f5}.cls-6{fill:#e8d5c1}.cls-7{fill:#fff}.cls-8{fill:#db617b}.cls-9{fill:#1c64f2}.cls-11{stroke:#265cd2;stroke-linecap:round;stroke-miterlimit:10;stroke-width:3px}</style></defs><g id="Layer_2" data-name="Layer 2"><path class="cls-2" d="M145.91 192.27s-1.61-.83-4-1.77l-.92-.37c-6.88-2.61-17.29-3.51-19.15 4.78-1.16 5.14 3 10.39 7.52 14.85l1.12 1.08a84 84 0 0015 10.8 114.65 114.65 0 005.22 17s2.42 6.69-5.41.77-15.39-12.14-20.6-6.38-1.7 19 11.73 32.85c13 13.39 97.71 80 214.77 53.91 1.47-.33 3-.67 4.44-1 4.42-1.07 7.48-5.89 7.14-11.26-.36-5.61-4.29-9.83-8.89-9.83a8.34 8.34 0 00-1.21.1l-3.31.54c-5.31.87-9.79-3.93-10.11-9.81 11.88 1.76 18.17-2.34 18.41-12.26.12-4.95-3.73-7.58-7.61-9a29.47 29.47 0 00-7.8-1.53c0-6.06-1.06-12-3.84-17.15-7.45-13.69-12-18.23-24.36-25.34 6-5.63 15-12.79 25.47-21.8a131.1 131.1 0 0114.34-10.63c35.28-23 102.11 4.41 122.61-16.09s3.46-41.28 25.11-55.69 20.21-32.93 11.83-39S468.94 94 458.26 95.68a8.33 8.33 0 01-4-.23c-11.21-3.67-12.77-15.88-20-17.38-26.8-5.57-31.8 36.43-68.8 40.43-.87.09-17-4-16.94-14.45 0-7.67 15.66-34-16.86-36.92s-69.68 52-69.68 52a133.84 133.84 0 00-23.42-9.48 59.43 59.43 0 00-29.73-3.4c4.29-6.09 6-12 2.31-15.64-9.61-9.48-36.07-8.61-36.07-8.61-12.79.67-17.27 37.9-16.75 42.62.33 3 3.76 4.5 9.54 4.57-6.67 8.19-10.68 17.67-10.78 27a34.49 34.49 0 002.1 12.09c-4.3 7.75-10.12 14.81-13.22 24.67zM422 537c-108.5-54.5-175.5 4.5-204.5-50.5-16.81-31.89 16.9-64.5-5.5-111.5-31.61-66.33-104.46-59.18-139.36-120.64C27 174 60.5 104.86 120 67c44-28 89.13-28 180.82-16C396.5 63.5 459.1-2.17 525.7 28.66 594.5 60.5 526.5 145.5 601 173c69.12 25.52 135.5 47.5 150 100 12.73 46.07-10.57 85.76-30 112-32.37 43.72-8 77-61 140-39.52 47-151.24 55.58-238 12z" transform="translate(-51.39 -20.34)"/><path class="cls-3" d="M177.83 192.1c6.12 4.73 12.61 9.48 12.61 9.48l.75 2.43-.7-.47A116.6 116.6 0 01175.93 192a.28.28 0 01-.09-.07c-1.83-1.88-3.58-3.73-5.2-5.54 1.95 1.61 4.53 3.67 7.19 5.71zM159.52 169.27c.14.43.54 1.62 1.23 3.4a16.57 16.57 0 01-1.26-3.5.38.38 0 01.03.1z" transform="translate(-51.39 -20.34)"/><path class="cls-4" d="M227.32 237.07l-19.25 11.43A16.72 16.72 0 00192.5 237a16.32 16.32 0 00-6.77 1.46l-8.16-25.06a74.11 74.11 0 0021.06 14.8l1.52 4.92 4.11-2.46a117.28 117.28 0 0023.06 6.41z" transform="translate(-51.39 -20.34)"/><path class="cls-5" d="M177.57 213.4c-19.43-19.82-18.14-43.71-18.1-44.3a16.57 16.57 0 001.26 3.5.09.09 0 000 .05 122.55 122.55 0 0010.12 20.12z" transform="translate(-51.39 -20.34)"/><path class="cls-5" d="M168 184l2.88 8.85a122.55 122.55 0 01-10.12-20.12 43.66 43.66 0 004.52 7.17 69 69 0 004.49 5.73c-.77-.63-1.33-1.19-1.77-1.63z" transform="translate(-51.39 -20.34)"/><path class="cls-4" d="M168 184c.44.45 1 1 1.77 1.63a85.78 85.78 0 006.05 6.27.28.28 0 00.09.07c4.92 5 10.54 10.21 16.23 15.2l4.51 14.64c-2-1.49-3.84-3-5.61-4.64a111.36 111.36 0 01-20.18-24.34zM227.32 237.07a117.28 117.28 0 01-23.06-6.41l3.05-1.83a82.76 82.76 0 0010.43 4.94q2.47 1 5 1.79 2.33.75 4.76 1.38z" transform="translate(-51.39 -20.34)"/><path class="cls-3" d="M177.83 192.1c-2.66-2-5.24-4.08-7.19-5.73-2-2.24-3.81-4.41-5.36-6.48a50.18 50.18 0 01-5.76-10.62.38.38 0 000-.1c-.1-.26-.2-.51-.29-.77 2.51-4.52 14.29 19.4 18.33 21.89.33.22.69.43 1.05.63z" transform="translate(-51.39 -20.34)"/><path class="cls-5" d="M513.39 80.09c8.38 6.06 9.82 24.58-11.83 39s-4.62 35.2-25.11 55.69-87.33-6.86-122.61 16.09a131.1 131.1 0 00-14.34 10.63c-10.5 9-19.5 16.16-25.5 21.79-5.34-3.06-12.15-6.61-21.27-11.59a42.55 42.55 0 00-5.63-2.51 41.87 41.87 0 0012.14-18.07 60.45 60.45 0 003.1-12.42 9.55 9.55 0 009.33-3.89l13.94-20.07a13.65 13.65 0 00-6.08-20.58L298 124.94a8.32 8.32 0 00-10.87 4.29l-2.25 5.48A103.38 103.38 0 00262 119.08s37.16-54.85 69.68-51.95 16.9 29.25 16.86 36.92c-.06 10.45 16.07 14.54 16.94 14.45 37-4 42-46 68.8-40.43 7.21 1.5 8.77 13.71 20 17.38a8.33 8.33 0 004 .23C468.94 94 505 74 513.39 80.09z" transform="translate(-51.39 -20.34)"/><path class="cls-3" d="M362.75 307.53c.34 5.37-2.72 10.19-7.14 11.26-1.48.36-3 .7-4.44 1a28.76 28.76 0 00-1.83-21.48l3.31-.54a8.34 8.34 0 011.21-.1c4.6.03 8.53 4.25 8.89 9.86zM350 267.31c3.88 1.38 7.73 4 7.61 9-.24 9.92-6.53 14-18.41 12.26l.63-4.87a76 76 0 002.36-17.87 29.47 29.47 0 017.81 1.48z" transform="translate(-51.39 -20.34)"/><path class="cls-3" d="M349.34 298.34a28.76 28.76 0 011.83 21.48z" transform="translate(-51.39 -20.34)"/><path class="cls-3" d="M349.34 298.34l1.83 21.48c-117.06 26.12-201.78-40.52-214.77-53.91-13.43-13.86-17-27.09-11.73-32.85s12.78.47 20.6 6.38 5.41-.77 5.41-.77a114.65 114.65 0 01-5.22-17c1.86 1.07 3 1.65 3 1.65L146 193c3.1-9.86 8.92-16.92 13.22-24.67.09.26.19.51.29.77 0 .59-1.33 24.48 18.1 44.3l8.16 25.06A16.5 16.5 0 00192.5 270c9.11 0 16.5-6.89 16.5-16a16.84 16.84 0 00-.93-5.5l19.25-11.43 2.5.43c1.45.33 2.93.63 4.44.89 21 3.67 47.23.51 79.75-15.1 12.37 7.11 16.91 11.65 24.36 25.34 2.78 5.11 3.82 11.09 3.84 17.15l-2.35 17.87c-.08.36-.17.72-.26 1.06a12.21 12.21 0 00-.37 3.81c.32 5.89 4.77 10.69 10.11 9.82zm-19.91-35.48c.81-1 9-10.9-1.16-18.79s-20.29 3-20.29 3-4.91 7 4.82 14.7 15.82 2.05 16.63 1.09z" transform="translate(-51.39 -20.34)"/><path class="cls-3" d="M342.23 265.78a76 76 0 01-2.36 17.87l2.35-17.87z" transform="translate(-51.39 -20.34)"/><path class="cls-6" d="M339.6 284.72c.09-.34.18-.7.26-1.06l-.63 4.87a12.21 12.21 0 01.37-3.81z" transform="translate(-51.39 -20.34)"/><path class="cls-4" d="M328.27 244.07c10.19 7.89 2 17.83 1.16 18.79s-6.9 6.64-16.63-1.06-4.8-14.7-4.8-14.7 10.07-10.92 20.27-3.03zM319.56 134.16a13.65 13.65 0 016.08 20.58l-13.94 20.07a9.55 9.55 0 01-9.33 3.89c2.51-18.83-6-33.29-17.5-44l2.25-5.48a8.32 8.32 0 0110.88-4.28z" transform="translate(-51.39 -20.34)"/><path class="cls-4" d="M284.87 134.71c11.52 10.7 20 25.16 17.5 44A9.32 9.32 0 01300 178a19.66 19.66 0 01-5.28-3.45 19 19 0 01-3.79-4.89l-6.72-12.58c-.13-.25-.27-.51-.39-.76 2.87-.16 4.14-1.61-.44-5.87a18.94 18.94 0 00-1.63-1.36 21.88 21.88 0 011.57-10.7z" transform="translate(-51.39 -20.34)"/><path class="cls-3" d="M300 178a9.32 9.32 0 002.33.7 60.45 60.45 0 01-3.1 12.42 41.87 41.87 0 01-12.14 18.07c-28.11-10.4-86.63-6.06-108.57-18.34-.36-.2-.72-.41-1.05-.63-4-2.49-15.82-26.41-18.33-21.89a34.49 34.49 0 01-2.1-12.09c.1-9.35 4.11-18.83 10.78-27a60.84 60.84 0 0012.59-1.43 20.86 20.86 0 003.94-1.28 2.4 2.4 0 01.11.23c1.06 2 17.81 6.73 21.39 6.62s4.12-1.09 3.91-5c-.14-2.53-9.26-5.68-15.66-7.59a66.86 66.86 0 0014.73-14.58 59.43 59.43 0 0129.73 3.4 133.84 133.84 0 0123.44 9.47 103.38 103.38 0 0122.85 15.63l-1.51 3.68a21.88 21.88 0 00-1.57 10.7c-8.35-6.27-20.92-6-20.92-6-1.73 1.14-1.85 2.57-1.84 4.82s12.29 5.52 17.12 7.16a24.15 24.15 0 007.71 1.27c.12.25.26.51.39.76l6.77 12.56a19 19 0 003.79 4.89A19.66 19.66 0 00300 178zm-22.82.05a5.41 5.41 0 10-5.41 5.4 5.4 5.4 0 005.45-5.4zm-9.38-17a5.15 5.15 0 10-5.15 5.14 5.14 5.14 0 005.19-5.14zm-15.27 16.74c6.14-33.4-43.39-33.19-43.39-33.19-21.89-1.32-25.34 19-22.65 29.53s59.93 37.07 66.08 3.66zM194 140.11a4.59 4.59 0 10-4.58 4.59 4.58 4.58 0 004.58-4.59zm-17.27 8.45a5.1 5.1 0 10-5.1 5.09 5.1 5.1 0 005.12-5.09z" transform="translate(-51.39 -20.34)"/><path class="cls-5" d="M292.76 211.7c9.12 5 15.93 8.53 21.27 11.59-32.52 15.61-58.77 18.77-79.75 15.1-1.51-.26-3-.56-4.44-.89h.16s-.53-.38-1.5-1.11l27.47-16.32c11.46-.57 22.62-3.57 31.21-10.89a42.55 42.55 0 015.58 2.52z" transform="translate(-51.39 -20.34)"/><path class="cls-7" d="M283.42 150.45c4.58 4.26 3.31 5.71.44 5.87a21.61 21.61 0 01-2.07-7.23 18.94 18.94 0 011.63 1.36z" transform="translate(-51.39 -20.34)"/><path class="cls-7" d="M283.86 156.32a24.15 24.15 0 01-7.71-1.27c-4.83-1.64-17.1-4.91-17.12-7.16s.11-3.68 1.84-4.82c0 0 12.57-.25 20.92 6a21.61 21.61 0 002.07 7.25zM271.81 172.66a5.4 5.4 0 11-5.4 5.39 5.4 5.4 0 015.4-5.39z" transform="translate(-51.39 -20.34)"/><path class="cls-4" d="M262.69 155.91a5.14 5.14 0 11-5.15 5.14 5.14 5.14 0 015.15-5.14z" transform="translate(-51.39 -20.34)"/><path class="cls-3" d="M259 218.25l-3.08 1.83a115.29 115.29 0 01-29.39-2.78l3.95-2.37c1.34 1.37 28.52 3.32 28.52 3.32z" transform="translate(-51.39 -20.34)"/><path class="cls-3" d="M255.92 220.08l3.08-1.83s-27.18-1.95-28.52-3.32l-3.95 2.37a172.34 172.34 0 01-18.29-5 72.68 72.68 0 01-17.05-8.3l-.75-2.43s-6.49-4.75-12.61-9.48l.73-1.25c21.94 12.28 80.46 7.94 108.57 18.34-8.59 7.33-19.75 10.33-31.21 10.9z" transform="translate(-51.39 -20.34)"/><path class="cls-4" d="M255.92 220.08l-27.47 16.32c-2.51-1.86-8-6-14.8-11.38l12.88-7.72a115.29 115.29 0 0029.39 2.78zM209.18 144.6s49.53-.21 43.39 33.19-63.36 6.89-66-3.66.72-30.85 22.61-29.53zm14.41 15.28a2.15 2.15 0 00-.54-4l-9.62-2.24a2.16 2.16 0 00-2.49 2.91c2.91 6.94 8.67 5.45 12.65 3.33z" transform="translate(-51.39 -20.34)"/><path class="cls-5" d="M230 237.51h-.13l-2.27-.56.9-.54c.92.72 1.5 1.1 1.5 1.1z" transform="translate(-51.39 -20.34)"/><path class="cls-4" d="M228.45 236.4l-.9.54q-2.43-.63-4.76-1.38-2.58-.83-5-1.79a82.76 82.76 0 01-10.43-4.94l6.34-3.81c6.77 5.4 12.24 9.52 14.75 11.38z" transform="translate(-51.39 -20.34)"/><path class="cls-5" d="M227.55 236.94l2.27.56-2.5-.43zM226.53 217.3l-12.88 7.7c-6.41-5.08-14-11.3-21.49-17.84l-1-3.17a72.68 72.68 0 0017.05 8.28 172.34 172.34 0 0018.32 5.03z" transform="translate(-51.39 -20.34)"/><path class="cls-7" d="M223.05 155.89a2.15 2.15 0 01.54 4c-4 2.13-9.74 3.61-12.65-3.32a2.16 2.16 0 012.49-2.91z" transform="translate(-51.39 -20.34)"/><path class="cls-5" d="M213.65 225l-6.34 3.81a88.56 88.56 0 01-10.64-7l-4.51-14.64c7.47 6.55 15.08 12.77 21.49 17.83z" transform="translate(-51.39 -20.34)"/><path class="cls-4" d="M211.18 90.56c3.7 3.61 2 9.55-2.31 15.64a65.4 65.4 0 00-41 23c-5.78-.07-9.21-1.61-9.54-4.57-.52-4.72 4-41.95 16.75-42.62-.01-.01 26.45-.88 36.1 8.55z" transform="translate(-51.39 -20.34)"/><path class="cls-7" d="M209.8 128.37c.21 3.9-.33 4.88-3.91 5s-20.33-4.58-21.39-6.62a2.4 2.4 0 00-.11-.23 50.14 50.14 0 009.75-5.73c6.4 1.9 15.52 5.05 15.66 7.58zM208.07 248.5a16.84 16.84 0 01.93 5.5c0 9.11-7.39 16-16.5 16a16.5 16.5 0 01-6.77-31.54l6.36 19.54z" transform="translate(-51.39 -20.34)"/><path class="cls-7" d="M208.07 248.5l-16 9.5-6.36-19.54a16.32 16.32 0 016.79-1.46 16.72 16.72 0 0115.57 11.5z" transform="translate(-51.39 -20.34)"/><path class="cls-5" d="M207.31 228.83l-3.05 1.83c-2-.78-3.84-1.61-5.63-2.46l-2-6.38a88.56 88.56 0 0010.68 7.01z" transform="translate(-51.39 -20.34)"/><path class="cls-3" d="M204.26 230.66l-4.11 2.46-1.52-4.92c1.79.85 3.67 1.68 5.63 2.46z" transform="translate(-51.39 -20.34)"/><path class="cls-4" d="M196.67 221.82l2 6.38a74.11 74.11 0 01-21.06-14.8l-6.69-20.56a111.36 111.36 0 0020.18 24.34c1.73 1.59 3.61 3.15 5.57 4.64zM208.87 106.2a66.86 66.86 0 01-14.73 14.58c-3.48-1-6.16-1.7-6.16-1.7-4.83.06-4.56 5.23-3.59 7.43a20.86 20.86 0 01-3.94 1.28 60.84 60.84 0 01-12.59 1.43 65.4 65.4 0 0141.01-23.02zM189.44 135.53a4.59 4.59 0 11-4.59 4.58 4.58 4.58 0 014.59-4.58zM191.19 204l1 3.17c-5.69-5-11.31-10.18-16.23-15.2a116.6 116.6 0 0014.56 11.56z" transform="translate(-51.39 -20.34)"/><path class="cls-7" d="M188 119.08s2.68.67 6.16 1.7a50.14 50.14 0 01-9.75 5.73c-.99-2.2-1.26-7.37 3.59-7.43zM171.65 143.45a5.1 5.1 0 11-5.1 5.11 5.1 5.1 0 015.1-5.11z" transform="translate(-51.39 -20.34)"/><path class="cls-3" d="M170.64 186.37c1.62 1.81 3.37 3.66 5.2 5.54a85.78 85.78 0 01-6.05-6.27z" transform="translate(-51.39 -20.34)"/><path class="cls-3" d="M170.64 186.37l-.85-.73a69 69 0 01-4.49-5.73c1.53 2.09 3.33 4.22 5.34 6.46z" transform="translate(-51.39 -20.34)"/><path class="cls-5" d="M165.28 179.89a43.66 43.66 0 01-4.52-7.17.09.09 0 010-.05c-.69-1.78-1.09-3-1.23-3.4a50.18 50.18 0 005.75 10.62z" transform="translate(-51.39 -20.34)"/><path class="cls-2" d="M159.49 169.17s-.01-.02 0 0z" transform="translate(-51.39 -20.34)"/><path class="cls-3" d="M159.47 169.13z" transform="translate(-51.39 -20.34)"/><path class="cls-8" d="M159.47 169.1z" transform="translate(-51.39 -20.34)"/><path class="cls-3" d="M146 193l2.53 30.29s-1.17-.58-3-1.65c-2.68-12.14-1.91-21.19.47-28.64z" transform="translate(-51.39 -20.34)"/><path class="cls-3" d="M145.91 192.27l.05.73c-2.34 7.45-3.11 16.5-.5 28.64a84 84 0 01-15-10.8l-1.12-1.08 12.29-18.61.26-.65c2.41.94 4.02 1.77 4.02 1.77z" transform="translate(-51.39 -20.34)"/><path class="cls-3" d="M141.93 190.5l-.26.65-12.29 18.61c-4.56-4.46-8.68-9.71-7.52-14.85 1.86-8.29 12.27-7.39 19.15-4.78z" transform="translate(-51.39 -20.34)"/><path class="cls-7" d="M595.27 445c-4.41 7.73 1.62 17.05 11 17l130.64-1c7.77 0 11.11-9.33 4.82-13.61a52.44 52.44 0 00-19.5-8.09 67.91 67.91 0 00-21.78-.93c-8.32 1.07-16.37-3-19.9-10.11-3.66-7.37-9.49-14.68-18.13-14.1-17.09 1.14-15.63 18.6-25.63 22.85-13.43 5.71-31.74-9.14-41.5 8zM302 395.7c1 8.11-6 12.17-27 12.17l-129.27 3.77c-9 0-12.9-10.45-5.6-15.24a62.12 62.12 0 0122.66-9.06 81.52 81.52 0 0125.3-1c9.67 1.19 10.8-3.74 14.91-11.72 4.25-8.25 11-17 29.29-15.39 19.79 1.8 18.16 20.82 29.78 25.58 15.6 6.4 35.93-2.88 39.93 10.92zM588.22 208c2.78 10-1.34 17-9 17l-107.51-1c-11.67 0-7.84-11.73-2.67-16 4.09-3.39 7-5 14.76-5.69 7.32-.66 15.5.95 20.24 1.69 6.85 1.06 11.15-5.6 14.06-12.73 3-7.37 7.8-14.68 14.91-14.1C547 178.31 545 194 557 195c12.4 1 27 3 31.22 13z" transform="translate(-51.39 -20.34)"/><circle class="cls-9" cx="140.9" cy="233.04" r="10.33"/><g clip-path="url(#clip-path)"><path class="cls-7" d="M192.47 252.89c1.2.46 2.21 3 1.76 4.12-.19.53-.72.69-1.4.44s-1.08-.84-1.67-1.07-1.23 0-2-.3-1-.72-.77-1.25c.48-1.17 2.88-2.39 4.08-1.94zm2.3.65a1.06 1.06 0 011.37-.35.92.92 0 01.08 1.33 1 1 0 01-1.37.35.92.92 0 01-.08-1.33zm-1.16-.79a1.16 1.16 0 010-1.61 1.19 1.19 0 011.53-.53 1.16 1.16 0 010 1.61c-.42.59-1.14.83-1.53.53zm-4.09-2.05a1.05 1.05 0 01.8 1.17.91.91 0 01-.94.94 1 1 0 01-.8-1.16.91.91 0 01.94-.95zm2.2 1.33c-.52-.05-.88-.68-.81-1.4s.54-1.27 1.05-1.22.88.69.81 1.41-.54 1.27-1.05 1.18z" transform="translate(-51.39 -20.34)"/></g></g><g id="Layer_3" data-name="Layer 3"><path class="cls-4" d="M721.54 266.4c19.4 11.19 9.2 36.27-14.76 58.11-19.22 17.52 12.72 28-4.51 43.34-21.64 19.27-68.66-23-103.95 0-22.94 14.92-54.43 29.75-71.21 39.84-5.34-3.08-12.14-6.62-21.27-11.6a41.43 41.43 0 00-5.64-2.51 41.83 41.83 0 0012.15-18.08 60.14 60.14 0 003.1-12.42 9.56 9.56 0 009.33-3.87l14-20.08a13.66 13.66 0 00-6.09-20.58l-21.57-9.21a8.31 8.31 0 00-10.88 4.28l-2.25 5.47a103.38 103.38 0 00-22.84-15.62s57.18-74.64 70.69-53.84c7.37 11.34-16.29 27.87-4.55 33.82 9.37 4.74 44.29-10.53 70.09-28.5 19.74-13.75 28.07-11.1 34.43-3.51 6.74 8.06-7.26 27.06 3 30.08s48.78-28.93 72.73-15.12z" transform="translate(-51.39 -20.34)"/><path class="cls-3" d="M575.83 491.93c.33 5.35-2.72 10.17-7.14 11.24-1.49.36-3 .7-4.45 1a28.72 28.72 0 00-1.82-21.47l3.31-.53a7.26 7.26 0 011.22-.1c4.58.03 8.52 4.24 8.88 9.86zM563.1 451.7c3.89 1.39 7.74 4 7.62 9-.24 9.91-6.54 14-18.42 12.25l.64-4.85a76 76 0 002.36-17.87 30 30 0 017.8 1.47z" transform="translate(-51.39 -20.34)"/><path class="cls-3" d="M562.42 482.73a28.72 28.72 0 011.82 21.47z" transform="translate(-51.39 -20.34)"/><path class="cls-3" d="M562.42 482.73l1.82 21.47c-117 26.14-201.78-40.51-214.76-53.91-13.43-13.85-17-27.08-11.74-32.84s12.78.46 20.61 6.38 5.41-.76 5.41-.76a114.51 114.51 0 01-5.21-17c1.85 1.06 3 1.65 3 1.65l-2.52-30.29c3.08-9.87 8.91-16.93 13.21-24.68.09.25.18.51.28.77-.05.9-3.06 56.74 70.48 68.42 1.42.32 2.86.61 4.34.87 21 3.68 47.23.51 79.75-15.09 12.36 7.1 16.91 11.64 24.36 25.34 2.78 5.1 3.82 11.08 3.84 17.14L553 468c-.09.35-.17.7-.26 1.05-1.97 7.47 3.26 14.73 9.68 13.68zm-19.91-35.47c.81-1 9-10.92-1.17-18.8s-20.28 3-20.28 3-4.91 7 4.81 14.71 15.83 2.05 16.64 1.09z" transform="translate(-51.39 -20.34)"/><path class="cls-3" d="M555.31 450.17A76 76 0 01553 468l2.35-17.87z" transform="translate(-51.39 -20.34)"/><path class="cls-5" d="M541.34 428.46c10.2 7.88 2 17.84 1.17 18.8s-6.91 6.64-16.64-1.07-4.81-14.71-4.81-14.71 10.09-10.91 20.28-3.02zM532.64 318.55a13.66 13.66 0 016.09 20.58l-14 20.08a9.56 9.56 0 01-9.33 3.87c2.5-18.81-6-33.27-17.51-44l2.25-5.47a8.31 8.31 0 0110.88-4.28z" transform="translate(-51.39 -20.34)"/><path class="cls-5" d="M497.94 319.09c11.53 10.72 20 25.18 17.51 44a8.78 8.78 0 01-2.33-.69 19.69 19.69 0 01-5.28-3.46 18.52 18.52 0 01-3.79-4.88l-6.73-12.59a21.8 21.8 0 01-.89-18.68z" transform="translate(-51.39 -20.34)"/><path class="cls-3" d="M513.12 362.39a8.78 8.78 0 002.33.69 60.14 60.14 0 01-3.1 12.42 41.83 41.83 0 01-12.15 18.08c-28.57-10.57-88.56-5.91-109.62-19a6.5 6.5 0 01-1.2-1.09c-4.78-5.31-14.82-24.95-17.12-20.81a34.76 34.76 0 01-2.1-12.09c.11-9.35 4.12-18.83 10.79-27a60.57 60.57 0 0012.57-1.42 23.25 23.25 0 005.39-1.93c5.15 2.07 11.65 4.17 13.76 4.37 3.57.32 4.21-.43 4.37-3.69.07-1.54-4.58-3.91-9.51-6A66.58 66.58 0 00422 290.59a59.33 59.33 0 0129.73 3.4 134.8 134.8 0 0123.42 9.48 103.38 103.38 0 0122.84 15.62l-1.51 3.69a21.8 21.8 0 00.89 18.68l6.73 12.59a18.52 18.52 0 003.79 4.88 19.69 19.69 0 005.23 3.46zm-32.05-22.16c4.84 1.63 15.49 3.07 7.27-4.59s-22.56-7.38-22.56-7.38c-1.73 1.15-1.85 2.57-1.83 4.82s12.28 5.52 17.12 7.15zm-11.72 13.26a5.4 5.4 0 10-5.4 5.39 5.4 5.4 0 005.4-5.39zM452.5 357c9.3-24.79-33.93-31.27-33.93-31.27-18.94-3.95-24.36 11.14-23.25 19.59S443.2 381.8 452.5 357zm-61.16-31.88a5.1 5.1 0 10-5.09 5.11 5.1 5.1 0 005.09-5.09z" transform="translate(-51.39 -20.34)"/><path class="cls-4" d="M505.84 396.09c9.13 5 15.93 8.52 21.27 11.6-32.52 15.6-58.77 18.77-79.75 15.09-1.48-.26-2.92-.55-4.34-.87 0 0-33.11-24.26-54-45.53a119.27 119.27 0 0014.57 11.56 72.92 72.92 0 0017.75 8.74c17.47 5.83 56.71 15.8 78.88-3.1a41.43 41.43 0 015.62 2.51z" transform="translate(-51.39 -20.34)"/><path class="cls-7" d="M488.34 335.64c8.22 7.66-2.43 6.22-7.27 4.59s-17.07-4.9-17.07-7.15.1-3.67 1.83-4.82c-.05 0 14.29-.26 22.51 7.38z" transform="translate(-51.39 -20.34)"/><circle class="cls-7" cx="412.55" cy="333.15" r="5.4"/><path class="cls-3" d="M500.2 393.58c-22.17 18.9-61.41 8.93-78.88 3.1a72.92 72.92 0 01-17.75-8.74A119.27 119.27 0 01389 376.38l-.08-.08c-.52-.53-1-1.07-1.55-1.61l2-1.16a6.5 6.5 0 001.2 1.09c21.07 13.05 81.06 8.38 109.63 18.96z" transform="translate(-51.39 -20.34)"/><path class="cls-5" d="M418.57 325.75s43.23 6.48 33.93 31.25-56.08-3.24-57.18-11.68 4.31-23.52 23.25-19.57zm13.7 13.77a2.15 2.15 0 00.43-4l-8.82-4.46a2.15 2.15 0 00-3.11 2.23c1.17 7.42 7.12 7.36 11.5 6.23z" transform="translate(-51.39 -20.34)"/><path class="cls-4" d="M443 421.91c-2.46-.56-4.84-1.22-7.16-2-1.72-.56-3.39-1.16-5-1.81a88.2 88.2 0 01-26.69-16.58c-18-16.13-27.15-36.35-30.29-44.46a44.08 44.08 0 004.63 7.32 77.42 77.42 0 0010.45 11.87l.08.08c20.89 21.32 53.98 45.58 53.98 45.58z" transform="translate(-51.39 -20.34)"/><path class="cls-4" d="M435.86 420c2.32.73 4.7 1.39 7.16 2-73.54-11.68-70.53-67.52-70.48-68.42a.19.19 0 000 .07 17.29 17.29 0 001.25 3.5c3.14 8.11 12.26 28.33 30.29 44.46a88.2 88.2 0 0026.69 16.58c1.7.61 3.37 1.21 5.09 1.81z" transform="translate(-51.39 -20.34)"/><path class="cls-7" d="M432.7 335.52a2.15 2.15 0 01-.43 4c-4.38 1.13-10.33 1.19-11.5-6.23a2.15 2.15 0 013.11-2.23z" transform="translate(-51.39 -20.34)"/><path class="cls-5" d="M424.26 274.94c3.7 3.62 2 9.56-2.31 15.65a64.85 64.85 0 00-26.6 10.11 3.38 3.38 0 00-3.49 2.45A62.31 62.31 0 00381 313.6c-5.79-.06-9.22-1.61-9.55-4.56-.53-4.71 4-41.94 16.74-42.62-.05 0 26.42-.89 36.07 8.52z" transform="translate(-51.39 -20.34)"/><path class="cls-7" d="M407.53 305c4.93 2.07 9.58 4.44 9.51 6-.16 3.26-.8 4-4.37 3.69-2.11-.2-8.61-2.3-13.76-4.37a54.37 54.37 0 008.62-5.32z" transform="translate(-51.39 -20.34)"/><path class="cls-5" d="M422 290.59A66.58 66.58 0 01407.53 305c-5.47-2.29-11.28-4.22-11.28-4.22a5.56 5.56 0 00-.9 0A64.85 64.85 0 01422 290.59z" transform="translate(-51.39 -20.34)"/><path class="cls-7" d="M407.53 305a54.37 54.37 0 01-8.62 5.3c-3.57-1.43-6.49-2.84-6.85-3.58a5.29 5.29 0 01-.2-3.52 56.07 56.07 0 013.49-2.45 5.56 5.56 0 01.9 0s5.81 1.91 11.28 4.25z" transform="translate(-51.39 -20.34)"/><path class="cls-5" d="M398.91 310.25a23.25 23.25 0 01-5.39 1.93A60.57 60.57 0 01381 313.6a62.31 62.31 0 0110.91-10.45 5.29 5.29 0 00.2 3.52c.31.74 3.23 2.15 6.8 3.58z" transform="translate(-51.39 -20.34)"/><path class="cls-7" d="M395.35 300.7c-1.2.77-2.35 1.59-3.49 2.45a3.38 3.38 0 013.49-2.45zM386.25 320a5.11 5.11 0 11-5.1 5.1 5.1 5.1 0 015.1-5.1z" transform="translate(-51.39 -20.34)"/><path class="cls-3" d="M389.38 373.53l-2 1.16a115.26 115.26 0 01-8.9-10.26 49.12 49.12 0 01-5.91-10.91c-.1-.26-.19-.52-.28-.77 2.27-4.17 12.31 15.47 17.09 20.78z" transform="translate(-51.39 -20.34)"/><path class="cls-8" d="M387.37 374.69c.51.54 1 1.08 1.55 1.61a77.42 77.42 0 01-10.45-11.87 115.26 115.26 0 008.9 10.26z" transform="translate(-51.39 -20.34)"/><path class="cls-2" d="M378.47 364.43a44.08 44.08 0 01-4.63-7.32c-.75-1.95-1.15-3.19-1.25-3.5a.13.13 0 010-.05 49.12 49.12 0 005.88 10.87z" transform="translate(-51.39 -20.34)"/><path class="cls-6" d="M373.82 357.07a17.29 17.29 0 01-1.25-3.5c.1.31.5 1.55 1.25 3.5zM372.56 353.52a.13.13 0 000 .05.19.19 0 010-.07z" transform="translate(-51.39 -20.34)"/><path class="cls-3" d="M359.05 377.4l2.52 30.29s-1.17-.59-3-1.65c-2.65-12.14-1.87-21.19.48-28.64z" transform="translate(-51.39 -20.34)"/><path class="cls-3" d="M359 376.65l.07.75c-2.35 7.45-3.13 16.5-.5 28.64a83.68 83.68 0 01-15-10.81l-1.11-1.08 12.29-18.61.26-.66a55.4 55.4 0 013.99 1.77z" transform="translate(-51.39 -20.34)"/><path class="cls-3" d="M355 374.88l-.26.66-12.29 18.61c-4.55-4.45-8.68-9.71-7.53-14.84 1.86-8.3 12.28-7.4 19.16-4.78z" transform="translate(-51.39 -20.34)"/><path class="cls-11" d="M395.18 315.28s3.36 9.7 13.83 5.48M464.7 341.53s3.36 9.69 13.84 5.48" transform="translate(-51.39 -20.34)"/></g><g id="Layer_5" data-name="Layer 5"><path class="cls-5" d="M435.5 399l-29.35 17-6.85-33.22s-16.16-15.07-19.61-19.57l17.3 78 64.72-37s-25.06-3.68-26.21-5.21z" transform="translate(-51.39 -20.34)"/><path class="cls-2" d="M413.51 434.66c0 9.11-7.38 16-16.5 16a16.5 16.5 0 010-33c9.12 0 16.5 7.88 16.5 17z" transform="translate(-51.39 -20.34)"/><circle class="cls-9" cx="345.88" cy="414.36" r="10.33"/><g clip-path="url(#clip-path-2)"><path class="cls-7" d="M397.46 434.21c1.2.45 2.2 3 1.76 4.12-.2.53-.72.69-1.4.43s-1.08-.84-1.68-1.06-1.22 0-2-.31-1-.72-.76-1.25c.48-1.14 2.88-2.38 4.08-1.93zm2.3.65a1 1 0 011.36-.35.92.92 0 01.09 1.33 1.06 1.06 0 01-1.37.35.91.91 0 01-.08-1.33zm-1.17-.8a1.17 1.17 0 010-1.61 1.19 1.19 0 011.54-.52 1.17 1.17 0 010 1.61 1.19 1.19 0 01-1.54.52zm-4.08-2a1 1 0 01.8 1.16.93.93 0 01-.95.95 1.05 1.05 0 01-.79-1.17.91.91 0 01.94-1zm2.19 1.33c-.51-.05-.87-.68-.8-1.41s.54-1.26 1.05-1.21.88.68.81 1.4-.54 1.23-1.06 1.18z" transform="translate(-51.39 -20.34)"/></g></g></svg>